{
  "accessors": [
    {
      "bufferView": 2,
      "componentType": 5126,
      "count": 65532,
      "max": [
        2.242666006088257,
        5.400139808654785,
        1.707332968711853
      ],
      "min": [
        -1.7869609594345093,
        -1.9282200336456299,
        -3.1181581020355225
      ],
      "type": "VEC3"
    },
    {
      "bufferView": 2,
      "byteOffset": 786384,
      "componentType": 5126,
      "count": 65532,
      "max": [
        0.9999987483024597,
        0.9999332427978516,
        0.9999986290931702
      ],
      "min": [
        -0.9999967813491821,
        -0.9999974966049194,
        -0.9999285340309143
      ],
      "type": "VEC3"
    },
    {
      "bufferView": 1,
      "componentType": 5126,
      "count": 65532,
      "max": [
        0.9991419911384583,
        0.9999909996986389
      ],
      "min": [
        4.70000013592653e-05,
        7.000000096013537e-06
      ],
      "type": "VEC2"
    },
    {
      "bufferView": 0,
      "componentType": 5125,
      "count": 357801,
      "type": "SCALAR"
    },
    {
      "bufferView": 2,
      "byteOffset": 1572768,
      "componentType": 5126,
      "count": 4828,
      "max": [
        1.8577749729156494,
        3.7634830474853516,
        1.619987964630127
      ],
      "min": [
        -1.7588549852371216,
        -1.1713429689407349,
        -3.0351669788360596
      ],
      "type": "VEC3"
    },
    {
      "bufferView": 2,
      "byteOffset": 1630704,
      "componentType": 5126,
      "count": 4828,
      "max": [
        0.9999822378158569,
        0.9996748566627502,
        0.9999733567237854
      ],
      "min": [
        -0.9999061226844788,
        -0.9990692138671875,
        -0.9993731379508972
      ],
      "type": "VEC3"
    },
    {
      "bufferView": 1,
      "byteOffset": 524256,
      "componentType": 5126,
      "count": 4828,
      "max": [
        0.9987319707870483,
        0.9953230023384094
      ],
      "min": [
        0.0006670000148005784,
        0.0025019999593496323
      ],
      "type": "VEC2"
    },
    {
      "bufferView": 0,
      "byteOffset": 1431204,
      "componentType": 5125,
      "count": 18582,
      "type": "SCALAR"
    },
    {
      "bufferView": 2,
      "byteOffset": 1688640,
      "componentType": 5126,
      "count": 65532,
      "max": [
        1.8028850555419922,
        5.400139808654785,
        1.6744879484176636
      ],
      "min": [
        -1.843966007232666,
        -2.039992094039917,
        -3.0954010486602783
      ],
      "type": "VEC3"
    },
    {
      "bufferView": 2,
      "byteOffset": 2475024,
      "componentType": 5126,
      "count": 65532,
      "max": [
        0.9999753832817078,
        0.9998506307601929,
        0.9999987483024597
      ],
      "min": [
        -0.9999587535858154,
        -0.9999892115592957,
        -0.999984860420227
      ],
      "type": "VEC3"
    },
    {
      "bufferView": 1,
      "byteOffset": 562880,
      "componentType": 5126,
      "count": 65532,
      "max": [
        0.9930179715156555,
        0.9999549984931946
      ],
      "min": [
        1.9999999949504854e-06,
        1.700000029813964e-05
      ],
      "type": "VEC2"
    },
    {
      "bufferView": 0,
      "byteOffset": 1505532,
      "componentType": 5125,
      "count": 355146,
      "type": "SCALAR"
    },
    {
      "bufferView": 2,
      "byteOffset": 3261408,
      "componentType": 5126,
      "count": 5020,
      "max": [
        1.7898449897766113,
        4.163075923919678,
        1.7129390239715576
      ],
      "min": [
        -1.7079529762268066,
        -1.7900530099868774,
        -2.889007091522217
      ],
      "type": "VEC3"
    },
    {
      "bufferView": 2,
      "byteOffset": 3321648,
      "componentType": 5126,
      "count": 5020,
      "max": [
        0.9997196197509766,
        0.9993560910224915,
        0.999950647354126
      ],
      "min": [
        -0.999904453754425,
        -0.9990440011024475,
        -0.9967576265335083
      ],
      "type": "VEC3"
    },
    {
      "bufferView": 1,
      "byteOffset": 1087136,
      "componentType": 5126,
      "count": 5020,
      "max": [
        0.9916629791259766,
        0.9924460053443909
      ],
      "min": [
        4.400000034365803e-05,
        0.011358999647200108
      ],
      "type": "VEC2"
    },
    {
      "bufferView": 0,
      "byteOffset": 2926116,
      "componentType": 5125,
      "count": 18369,
      "type": "SCALAR"
    }
  ],
  "asset": {
    "extras": {
      "author": "yaelm (https://sketchfab.com/yaelm)",
      "license": "CC-BY-4.0 (http://creativecommons.org/licenses/by/4.0/)",
      "source": "https://sketchfab.com/3d-models/dragon-statue-59f1db0f2e64432eae540d7caac38c2d",
      "title": "Dragon statue"
    },
    "generator": "Sketchfab-12.68.0",
    "version": "2.0"
  },
  "bufferViews": [
    {
      "buffer": 0,
      "byteLength": 2999592,
      "name": "floatBufferViews",
      "target": 34963
    },
    {
      "buffer": 0,
      "byteLength": 1127296,
      "byteOffset": 2999592,
      "byteStride": 8,
      "name": "floatBufferViews",
      "target": 34962
    },
    {
      "buffer": 0,
      "byteLength": 3381888,
      "byteOffset": 4126888,
      "byteStride": 12,
      "name": "floatBufferViews",
      "target": 34962
    }
  ],
  "buffers": [
    {
      "byteLength": 7508776,
      "uri": "scene.bin"
    }
  ],
  "extensionsUsed": [
    "KHR_materials_unlit"
  ],
  "images": [
    {
      "uri": "textures/dragon_baseColor.jpeg"
    },
    {
      "uri": "textures/dragon1_baseColor.jpeg"
    }
  ],
  "materials": [
    {
      "doubleSided": true,
      "extensions": {
        "KHR_materials_unlit": {}
      },
      "name": "dragon",
      "pbrMetallicRoughness": {
        "baseColorTexture": {
          "index": 0
        },
        "metallicFactor": 0.0
      }
    },
    {
      "doubleSided": true,
      "extensions": {
        "KHR_materials_unlit": {}
      },
      "name": "dragon1",
      "pbrMetallicRoughness": {
        "baseColorTexture": {
          "index": 1
        },
        "metallicFactor": 0.0
      }
    }
  ],
  "meshes": [
    {
      "name": "Object_0",
      "primitives": [
        {
          "attributes": {
            "NORMAL": 1,
            "POSITION": 0,
            "TEXCOORD_0": 2
          },
          "indices": 3,
          "material": 0,
          "mode": 4
        }
      ]
    },
    {
      "name": "Object_1",
      "primitives": [
        {
          "attributes": {
            "NORMAL": 5,
            "POSITION": 4,
            "TEXCOORD_0": 6
          },
          "indices": 7,
          "material": 0,
          "mode": 4
        }
      ]
    },
    {
      "name": "Object_2",
      "primitives": [
        {
          "attributes": {
            "NORMAL": 9,
            "POSITION": 8,
            "TEXCOORD_0": 10
          },
          "indices": 11,
          "material": 1,
          "mode": 4
        }
      ]
    },
    {
      "name": "Object_3",
      "primitives": [
        {
          "attributes": {
            "NORMAL": 13,
            "POSITION": 12,
            "TEXCOORD_0": 14
          },
          "indices": 15,
          "material": 1,
          "mode": 4
        }
      ]
    }
  ],
  "nodes": [
    {
      "children": [
        1
      ],
      "matrix": [
        1.0,
        0.0,
        0.0,
        0.0,
        0.0,
        2.220446049250313e-16,
        -1.0,
        0.0,
        0.0,
        1.0,
        2.220446049250313e-16,
        0.0,
        0.0,
        0.0,
        0.0,
        1.0
      ],
      "name": "Sketchfab_model"
    },
    {
      "children": [
        2,
        3,
        4,
        5
      ],
      "name": "dragon.obj.cleaner.materialmerger.gles"
    },
    {
      "mesh": 0,
      "name": "Object_2"
    },
    {
      "mesh": 1,
      "name": "Object_3"
    },
    {
      "mesh": 2,
      "name": "Object_4"
    },
    {
      "mesh": 3,
      "name": "Object_5"
    }
  ],
  "samplers": [
    {
      "magFilter": 9729,
      "minFilter": 9987,
      "wrapS": 10497,
      "wrapT": 10497
    }
  ],
  "scene": 0,
  "scenes": [
    {
      "name": "Sketchfab_Scene",
      "nodes": [
        0
      ]
    }
  ],
  "textures": [
    {
      "sampler": 0,
      "source": 0
    },
    {
      "sampler": 0,
      "source": 1
    }
  ]
}
