{
  "accessors": [
    {
      "bufferView": 2,
      "componentType": 5126,
      "count": 24,
      "max": [
        265.3326110839844,
        -25.205900192260742,
        0.0
      ],
      "min": [
        -293.1007995605469,
        -518.6746826171875,
        -5.0
      ],
      "type": "VEC3"
    },
    {
      "bufferView": 2,
      "byteOffset": 288,
      "componentType": 5126,
      "count": 24,
      "max": [
        1.0,
        1.0,
        1.0
      ],
      "min": [
        -1.0,
        -1.0,
        -1.0
      ],
      "type": "VEC3"
    },
    {
      "bufferView": 1,
      "componentType": 5126,
      "count": 24,
      "max": [
        0.9911999702453613,
        0.9994999766349792
      ],
      "min": [
        0.0005000000237487257,
        0.0005000000237487257
      ],
      "type": "VEC2"
    },
    {
      "bufferView": 0,
      "componentType": 5125,
      "count": 36,
      "type": "SCALAR"
    },
    {
      "bufferView": 2,
      "byteOffset": 576,
      "componentType": 5126,
      "count": 1653,
      "max": [
        180.3074951171875,
        -192.3242950439453,
        98.9739990234375
      ],
      "min": [
        -28.19260025024414,
        -449.1477966308594,
        0.19220000505447388
      ],
      "type": "VEC3"
    },
    {
      "bufferView": 2,
      "byteOffset": 20412,
      "componentType": 5126,
      "count": 1653,
      "max": [
        0.8444512486457825,
        0.8472334146499634,
        1.0
      ],
      "min": [
        -0.8444512486457825,
        -0.8472334146499634,
        -1.0
      ],
      "type": "VEC3"
    },
    {
      "bufferView": 1,
      "byteOffset": 192,
      "componentType": 5126,
      "count": 1653,
      "max": [
        1.25409996509552,
        1.2733999490737915
      ],
      "min": [
        0.015599999576807022,
        0.0066999997943639755
      ],
      "type": "VEC2"
    },
    {
      "bufferView": 0,
      "byteOffset": 144,
      "componentType": 5125,
      "count": 3312,
      "type": "SCALAR"
    },
    {
      "bufferView": 2,
      "byteOffset": 40248,
      "componentType": 5126,
      "count": 1691,
      "max": [
        286.4034118652344,
        -4.8277997970581055,
        60.78390121459961
      ],
      "min": [
        -314.2684020996094,
        -536.4312744140625,
        0.0
      ],
      "type": "VEC3"
    },
    {
      "bufferView": 2,
      "byteOffset": 60540,
      "componentType": 5126,
      "count": 1691,
      "max": [
        1.0,
        1.0,
        0.9668331742286682
      ],
      "min": [
        -1.0,
        -1.0,
        -1.0
      ],
      "type": "VEC3"
    },
    {
      "bufferView": 1,
      "byteOffset": 13416,
      "componentType": 5126,
      "count": 1691,
      "max": [
        1.0,
        1.0
      ],
      "min": [
        0.0,
        0.0
      ],
      "type": "VEC2"
    },
    {
      "bufferView": 0,
      "byteOffset": 13392,
      "componentType": 5125,
      "count": 3246,
      "type": "SCALAR"
    },
    {
      "bufferView": 2,
      "byteOffset": 80832,
      "componentType": 5126,
      "count": 7638,
      "max": [
        227.6092987060547,
        -53.99300003051758,
        132.01939392089844
      ],
      "min": [
        100.40769958496094,
        -180.875,
        0.5144000053405762
      ],
      "type": "VEC3"
    },
    {
      "bufferView": 2,
      "byteOffset": 172488,
      "componentType": 5126,
      "count": 7638,
      "max": [
        1.0,
        1.0,
        1.0
      ],
      "min": [
        -1.0,
        -1.0,
        -1.0
      ],
      "type": "VEC3"
    },
    {
      "bufferView": 1,
      "byteOffset": 26944,
      "componentType": 5126,
      "count": 7638,
      "max": [
        0.9839000105857849,
        0.9904999732971191
      ],
      "min": [
        0.009499999694526196,
        0.012799999676644802
      ],
      "type": "VEC2"
    },
    {
      "bufferView": 0,
      "byteOffset": 26376,
      "componentType": 5125,
      "count": 16008,
      "type": "SCALAR"
    },
    {
      "bufferView": 2,
      "byteOffset": 264144,
      "componentType": 5126,
      "count": 949,
      "max": [
        -41.683998107910156,
        -4.950200080871582,
        69.8197021484375
      ],
      "min": [
        -264.5711975097656,
        -36.00920104980469,
        0.0
      ],
      "type": "VEC3"
    },
    {
      "bufferView": 2,
      "byteOffset": 275532,
      "componentType": 5126,
      "count": 949,
      "max": [
        1.0,
        1.0,
        0.9999998807907104
      ],
      "min": [
        -1.0,
        -1.0,
        -1.0
      ],
      "type": "VEC3"
    },
    {
      "bufferView": 1,
      "byteOffset": 88048,
      "componentType": 5126,
      "count": 949,
      "max": [
        0.9229000210762024,
        0.9685999751091003
      ],
      "min": [
        0.0005000000237487257,
        0.0005000000237487257
      ],
      "type": "VEC2"
    },
    {
      "bufferView": 0,
      "byteOffset": 90408,
      "componentType": 5125,
      "count": 2238,
      "type": "SCALAR"
    },
    {
      "bufferView": 2,
      "byteOffset": 286920,
      "componentType": 5126,
      "count": 3139,
      "max": [
        -43.45650100708008,
        -372.5870056152344,
        101.45169830322266
      ],
      "min": [
        -243.84609985351563,
        -479.6813049316406,
        0.0
      ],
      "type": "VEC3"
    },
    {
      "bufferView": 2,
      "byteOffset": 324588,
      "componentType": 5126,
      "count": 3139,
      "max": [
        1.0,
        1.0,
        1.0
      ],
      "min": [
        -1.0,
        -1.0,
        -1.0
      ],
      "type": "VEC3"
    },
    {
      "bufferView": 1,
      "byteOffset": 95640,
      "componentType": 5126,
      "count": 3139,
      "max": [
        0.9861000180244446,
        0.9708999991416931
      ],
      "min": [
        0.02410000003874302,
        0.0066999997943639755
      ],
      "type": "VEC2"
    },
    {
      "bufferView": 0,
      "byteOffset": 99360,
      "componentType": 5125,
      "count": 7308,
      "type": "SCALAR"
    }
  ],
  "asset": {
    "extras": {
      "author": "scottdeng (https://sketchfab.com/scottdeng)",
      "license": "CC-BY-4.0 (http://creativecommons.org/licenses/by/4.0/)",
      "source": "https://sketchfab.com/3d-models/chinese-garden-695e78a7ccc945acbda9f9f20ef7dba3",
      "title": "Chinese Garden"
    },
    "generator": "Sketchfab-12.65.0",
    "version": "2.0"
  },
  "bufferViews": [
    {
      "buffer": 0,
      "byteLength": 128592,
      "name": "floatBufferViews",
      "target": 34963
    },
    {
      "buffer": 0,
      "byteLength": 120752,
      "byteOffset": 128592,
      "byteStride": 8,
      "name": "floatBufferViews",
      "target": 34962
    },
    {
      "buffer": 0,
      "byteLength": 362256,
      "byteOffset": 249344,
      "byteStride": 12,
      "name": "floatBufferViews",
      "target": 34962
    }
  ],
  "buffers": [
    {
      "byteLength": 611600,
      "uri": "scene.bin"
    }
  ],
  "images": [
    {
      "uri": "textures/house01___Default_baseColor.jpeg"
    },
    {
      "uri": "textures/gate01___Default_baseColor.jpeg"
    },
    {
      "uri": "textures/pavilion01___Default_baseColor.jpeg"
    },
    {
      "uri": "textures/corridorwire_184228153_baseColor.jpeg"
    },
    {
      "uri": "textures/07___Default_baseColor.jpeg"
    }
  ],
  "materials": [
    {
      "doubleSided": true,
      "emissiveTexture": {
        "index": 0
      },
      "name": "house01___Default",
      "pbrMetallicRoughness": {
        "baseColorTexture": {
          "index": 0
        },
        "metallicFactor": 0.0
      }
    },
    {
      "doubleSided": true,
      "emissiveTexture": {
        "index": 1
      },
      "name": "gate01___Default",
      "pbrMetallicRoughness": {
        "baseColorTexture": {
          "index": 1
        },
        "metallicFactor": 0.0
      }
    },
    {
      "doubleSided": true,
      "emissiveTexture": {
        "index": 2
      },
      "name": "pavilion01___Default",
      "pbrMetallicRoughness": {
        "baseColorTexture": {
          "index": 2
        },
        "metallicFactor": 0.0
      }
    },
    {
      "doubleSided": true,
      "name": "wire_184228153",
      "pbrMetallicRoughness": {
        "baseColorFactor": [
          0.7216,
          0.8941,
          0.6,
          1.0
        ],
        "metallicFactor": 0.0,
        "roughnessFactor": 0.9167555019498095
      }
    },
    {
      "doubleSided": true,
      "emissiveTexture": {
        "index": 3
      },
      "name": "corridorwire_184228153",
      "pbrMetallicRoughness": {
        "baseColorTexture": {
          "index": 3
        },
        "metallicFactor": 0.0,
        "roughnessFactor": 0.9167555019498095
      }
    },
    {
      "doubleSided": true,
      "emissiveTexture": {
        "index": 4
      },
      "name": "07___Default",
      "pbrMetallicRoughness": {
        "baseColorTexture": {
          "index": 4
        },
        "metallicFactor": 0.0
      }
    }
  ],
  "meshes": [
    {
      "name": "Object_0",
      "primitives": [
        {
          "attributes": {
            "NORMAL": 1,
            "POSITION": 0,
            "TEXCOORD_0": 2
          },
          "indices": 3,
          "material": 5,
          "mode": 4
        }
      ]
    },
    {
      "name": "Object_1",
      "primitives": [
        {
          "attributes": {
            "NORMAL": 5,
            "POSITION": 4,
            "TEXCOORD_0": 6
          },
          "indices": 7,
          "material": 4,
          "mode": 4
        }
      ]
    },
    {
      "name": "Object_2",
      "primitives": [
        {
          "attributes": {
            "NORMAL": 9,
            "POSITION": 8,
            "TEXCOORD_0": 10
          },
          "indices": 11,
          "material": 3,
          "mode": 4
        }
      ]
    },
    {
      "name": "Object_3",
      "primitives": [
        {
          "attributes": {
            "NORMAL": 13,
            "POSITION": 12,
            "TEXCOORD_0": 14
          },
          "indices": 15,
          "material": 2,
          "mode": 4
        }
      ]
    },
    {
      "name": "Object_4",
      "primitives": [
        {
          "attributes": {
            "NORMAL": 17,
            "POSITION": 16,
            "TEXCOORD_0": 18
          },
          "indices": 19,
          "material": 1,
          "mode": 4
        }
      ]
    },
    {
      "name": "Object_5",
      "primitives": [
        {
          "attributes": {
            "NORMAL": 21,
            "POSITION": 20,
            "TEXCOORD_0": 22
          },
          "indices": 23,
          "material": 0,
          "mode": 4
        }
      ]
    }
  ],
  "nodes": [
    {
      "children": [
        1
      ],
      "matrix": [
        1.0,
        0.0,
        0.0,
        0.0,
        0.0,
        2.220446049250313e-16,
        -1.0,
        0.0,
        0.0,
        1.0,
        2.220446049250313e-16,
        0.0,
        0.0,
        0.0,
        0.0,
        1.0
      ],
      "name": "Sketchfab_model"
    },
    {
      "children": [
        2,
        4,
        6,
        8,
        10,
        12
      ],
      "name": "zbrush_concat.osgb.cleaner.materialmerger.gles"
    },
    {
      "children": [
        3
      ],
      "name": "/sketchfab-data/processing/models/72095e214c614ef3b73e3ecdba812510/695e78a7ccc945acbda9f9f20ef7dba3/11495494287c43c6a4929f9b79a6899c/preprocess/6.obj"
    },
    {
      "mesh": 0,
      "name": "Object_3"
    },
    {
      "children": [
        5
      ],
      "name": "/sketchfab-data/processing/models/72095e214c614ef3b73e3ecdba812510/695e78a7ccc945acbda9f9f20ef7dba3/11495494287c43c6a4929f9b79a6899c/preprocess/5.obj"
    },
    {
      "mesh": 1,
      "name": "Object_5"
    },
    {
      "children": [
        7
      ],
      "name": "/sketchfab-data/processing/models/72095e214c614ef3b73e3ecdba812510/695e78a7ccc945acbda9f9f20ef7dba3/11495494287c43c6a4929f9b79a6899c/preprocess/4.obj"
    },
    {
      "mesh": 2,
      "name": "Object_7"
    },
    {
      "children": [
        9
      ],
      "name": "/sketchfab-data/processing/models/72095e214c614ef3b73e3ecdba812510/695e78a7ccc945acbda9f9f20ef7dba3/11495494287c43c6a4929f9b79a6899c/preprocess/3.obj"
    },
    {
      "mesh": 3,
      "name": "Object_9"
    },
    {
      "children": [
        11
      ],
      "name": "/sketchfab-data/processing/models/72095e214c614ef3b73e3ecdba812510/695e78a7ccc945acbda9f9f20ef7dba3/11495494287c43c6a4929f9b79a6899c/preprocess/2.obj"
    },
    {
      "mesh": 4,
      "name": "Object_11"
    },
    {
      "children": [
        13
      ],
      "name": "/sketchfab-data/processing/models/72095e214c614ef3b73e3ecdba812510/695e78a7ccc945acbda9f9f20ef7dba3/11495494287c43c6a4929f9b79a6899c/preprocess/1.obj"
    },
    {
      "mesh": 5,
      "name": "Object_13"
    }
  ],
  "samplers": [
    {
      "magFilter": 9729,
      "minFilter": 9987,
      "wrapS": 10497,
      "wrapT": 10497
    }
  ],
  "scene": 0,
  "scenes": [
    {
      "name": "Sketchfab_Scene",
      "nodes": [
        0
      ]
    }
  ],
  "textures": [
    {
      "sampler": 0,
      "source": 0
    },
    {
      "sampler": 0,
      "source": 1
    },
    {
      "sampler": 0,
      "source": 2
    },
    {
      "sampler": 0,
      "source": 3
    },
    {
      "sampler": 0,
      "source": 4
    }
  ]
}
